<svg width="34" height="36" viewBox="0 0 34 36" fill="none" xmlns="http://www.w3.org/2000/svg">
<path d="M33.399 17.187C33.3513 17.187 33.3155 17.187 33.2678 17.187C31.502 17.187 29.9391 16.2612 29.0562 14.8725L25.9065 18.006C25.9542 18.374 25.978 18.7538 25.978 19.1455C25.978 21.733 24.9281 24.0713 23.222 25.7568C21.5159 27.4541 19.1655 28.4986 16.5765 28.4986C13.9876 28.4986 11.6252 27.4541 9.93107 25.7568C8.22496 24.0594 7.17505 21.7211 7.17505 19.1455C7.17505 16.5579 8.22496 14.2197 9.93107 12.5342C11.6372 10.8369 13.9876 9.79235 16.5765 9.79235C17.2566 9.79235 17.9247 9.86357 18.5571 10.006L21.6114 6.96742C19.7382 6.279 18.39 4.49858 18.3662 2.39769C17.7816 2.33834 17.185 2.30273 16.5765 2.30273C15.8607 2.30273 15.1448 2.35021 14.4529 2.4333C14.3932 5.11579 12.186 7.27603 9.4777 7.27603C8.16531 7.27603 6.9603 6.76564 6.07741 5.93478C5.56439 6.33834 5.07522 6.77751 4.60992 7.24042C4.0969 7.75081 3.61966 8.28493 3.17822 8.85466C4.01338 9.74487 4.52641 10.9318 4.52641 12.2375C4.52641 14.8962 2.41465 17.0683 -0.245926 17.187C-0.317511 17.828 -0.365234 18.4927 -0.365234 19.1573C-0.365234 19.822 -0.329442 20.4748 -0.245926 21.1277C2.40272 21.2345 4.52641 23.4066 4.52641 26.0772C4.52641 27.3829 4.01338 28.5817 3.17822 29.46C3.61966 30.0297 4.0969 30.5639 4.60992 31.0743C5.07522 31.5372 5.56439 31.9763 6.07741 32.3799C6.97223 31.549 8.16531 31.0387 9.4777 31.0387C12.186 31.0387 14.3932 33.1989 14.4529 35.8814C15.1448 35.9645 15.8607 36.0119 16.5765 36.0119C17.185 36.0119 17.7816 35.9763 18.3662 35.917C18.402 33.2108 20.6211 31.0387 23.3413 31.0387C24.7372 31.0387 25.99 31.6084 26.8967 32.5223C27.4813 32.0713 28.0301 31.5846 28.5551 31.0743C29.0085 30.6232 29.438 30.1484 29.8317 29.6499C28.8892 28.7479 28.2926 27.4778 28.2926 26.0772C28.2926 23.3473 30.5237 21.1277 33.2678 21.1277C33.3155 21.1277 33.3513 21.1277 33.399 21.1277C33.4706 20.4867 33.5183 19.822 33.5183 19.1573C33.5064 18.4808 33.4706 17.828 33.399 17.187Z" fill="white"/>
<path d="M27.2424 5.09199C26.8606 4.71217 26.8606 4.08309 27.2424 3.70326L30.6785 0.284866C31.0603 -0.0949555 31.6926 -0.0949555 32.0744 0.284866C32.4562 0.664688 32.4562 1.29377 32.0744 1.67359L28.6383 5.09199C28.2565 5.47181 27.6361 5.47181 27.2424 5.09199Z" fill="white"/>
<path d="M18.9508 14.7416L26.6581 7.07398C27.0399 6.69416 27.0399 6.06508 26.6581 5.68526C26.2763 5.30544 25.644 5.30544 25.2622 5.68526L17.5549 13.3529C17.1731 13.7327 17.1731 14.3618 17.5549 14.7416C17.9367 15.1215 18.569 15.1215 18.9508 14.7416Z" fill="white"/>
<path d="M21.3014 16.3796L29.8439 7.88111C30.2256 7.50129 30.2256 6.87221 29.8439 6.49239C29.4621 6.11256 28.8297 6.11256 28.448 6.49239L19.9055 14.9909C19.5237 15.3707 19.5237 15.9998 19.9055 16.3796C20.2873 16.7594 20.9077 16.7594 21.3014 16.3796Z" fill="white"/>
<path d="M22.9481 18.7065L32.9223 8.77173C33.304 8.39191 33.304 7.76283 32.9223 7.38301C32.5405 7.00319 31.9081 7.00319 31.5264 7.38301L21.5402 17.3177C21.1585 17.6975 21.1585 18.3266 21.5402 18.7065C21.934 19.0981 22.5544 19.0981 22.9481 18.7065Z" fill="white"/>
<path d="M31.7053 5.98549C32.0827 5.61003 32.0827 5.0013 31.7053 4.62584C31.3279 4.25038 30.716 4.25038 30.3386 4.62584C29.9612 5.0013 29.9612 5.61003 30.3386 5.98549C30.716 6.36094 31.3279 6.36094 31.7053 5.98549Z" fill="white"/>
<path d="M20.776 19.3351C20.2869 18.8485 20.1198 18.1719 20.263 17.5547C19.8932 17.4954 19.5233 17.3173 19.237 17.0325C18.9148 16.712 18.7239 16.2965 18.6881 15.8811C18.0677 16.0236 17.3996 15.8455 16.9224 15.3707C16.815 15.2639 16.7196 15.1452 16.636 15.0146L14.2021 20.6408C14.5481 20.6526 14.8822 20.7951 15.1447 21.0562C15.3952 21.3054 15.5265 21.6141 15.5623 21.9345L21.2891 19.7031C21.0982 19.6081 20.9192 19.4894 20.776 19.3351Z" fill="white"/>
<path d="M14.9297 21.7567L14.4405 21.2701C14.2138 21.0446 13.8201 21.1276 13.7247 21.4363L13.4622 22.184C13.3429 22.5282 13.677 22.8487 14.011 22.73L14.7627 22.4689C15.0609 22.3621 15.1564 21.9822 14.9297 21.7567Z" fill="white"/>
</svg>
